<svg width="18" height="18" viewBox="0 0 18 18" fill="none" xmlns="http://www.w3.org/2000/svg">
<g clip-path="url(#clip0_1182_802)">
<path d="M15.7502 1.5L14.2502 3M8.54271 8.7075L11.6252 5.625M11.6252 5.625L13.8752 7.875L16.5002 5.25L14.2502 3M11.6252 5.625L14.2502 3M8.54271 8.7075C8.92996 9.0896 9.23781 9.54453 9.44852 10.0461C9.65924 10.5477 9.76865 11.0859 9.77048 11.63C9.7723 12.174 9.66649 12.713 9.45914 13.216C9.25179 13.7189 8.947 14.1759 8.56231 14.5606C8.17763 14.9453 7.72065 15.2501 7.21768 15.4574C6.71472 15.6648 6.17571 15.7706 5.63168 15.7688C5.08765 15.7669 4.54936 15.6575 4.0478 15.4468C3.54623 15.2361 3.09131 14.9283 2.70921 14.541C1.9578 13.763 1.54203 12.721 1.55143 11.6395C1.56082 10.5579 1.99465 9.52331 2.75945 8.7585C3.52426 7.99369 4.55886 7.55987 5.64043 7.55047C6.72199 7.54107 7.76397 7.95685 8.54196 8.70825L8.54271 8.7075Z" stroke="currentColor" stroke-width="2" stroke-linecap="round" stroke-linejoin="round"/>
</g>
<defs>
<clipPath id="clip0_1182_802">
<rect width="18" height="18" fill="white"/>
</clipPath>
</defs>
</svg>
