<svg width="86" height="92" viewBox="0 0 86 92" fill="none" xmlns="http://www.w3.org/2000/svg">
<path d="M44.4591 8.67851C44.5206 6.99584 43.205 5.57059 41.5222 5.62837C33.9539 5.88825 26.5686 8.14133 20.1257 12.1841C12.8201 16.7681 7.06402 23.4412 3.60569 31.336C0.147358 39.2307 -0.853289 47.982 0.733814 56.4523C2.32092 64.9225 6.42237 72.7201 12.5051 78.8314C18.5877 84.9426 26.3703 89.085 34.8413 90.72C43.3122 92.3551 52.0797 91.4072 60.0041 87.9995C67.9285 84.5918 74.6433 78.882 79.2758 71.6122C83.36 65.2029 85.6591 57.8423 85.9649 50.2871C86.0331 48.6028 84.6141 47.2774 82.9292 47.329C81.2442 47.3806 79.9333 48.7905 79.8453 50.474C79.5143 56.8045 77.5522 62.9616 74.1259 68.3384C70.1511 74.5762 64.3895 79.4754 57.5901 82.3993C50.7907 85.3232 43.2679 86.1365 35.9995 84.7336C28.7312 83.3307 22.0534 79.7764 16.8343 74.5327C11.6151 69.289 8.09591 62.5984 6.73412 55.3306C5.37233 48.0629 6.23092 40.554 9.19829 33.78C12.1657 27.006 17.1046 21.2803 23.3731 17.347C28.7786 13.9551 34.9573 12.0315 41.3 11.7393C42.9818 11.6619 44.3975 10.361 44.4591 8.67851Z" fill="#0048B3"/>
<path d="M40.0116 55.0641L76.8682 18.6492C78.1776 17.3555 80.2719 17.3167 81.6283 18.5611C83.0867 19.8991 83.124 22.1868 81.7099 23.5715L40.0116 64.4053L21.8367 46.5817C20.6246 45.393 20.615 43.4438 21.8153 42.2433C22.9745 41.0839 24.8423 41.047 26.0464 42.1596L40.0116 55.0641Z" fill="#0048B3"/>
</svg>
