<svg id="Layer_1" data-name="Layer 1" xmlns="http://www.w3.org/2000/svg" viewBox="0 0 3235 1660"><defs><style>.cls-1,.cls-3{fill:#3e6dd5;}.cls-2{fill:#0463bb;}.cls-3{stroke:#fff;stroke-miterlimit:10;stroke-width:6px;}.cls-4{fill:#fff;}</style></defs><path class="cls-1" d="M491.41,698.06l-79.33,36.31c-7.82-17.31-19.55-38.54-49.16-38.54-18.43,0-30.72,11.17-30.72,26.25,0,53.07,163.12,47.49,163.12,167,0,72.06-51.39,124-136.86,124-87.71,0-122.9-63.68-133-93.29l79.89-39.66c10.61,22.9,31.84,43.57,58.65,43.57,22.91,0,34.64-10.06,34.64-27.37,0-52-162-47.49-162-172.62,0-70.39,50.84-116.2,128.49-116.2C449,607.56,481.35,668.45,491.41,698.06Z"/><path class="cls-1" d="M636.63,817.61c25.7,0,45.81,6.14,56.42,10.61V817.61c0-17.88-14.52-31.84-44.69-31.84-25.7,0-50.83,7.26-73.74,18.43L540,741.63c31.28-20.66,70.94-36.31,119.54-36.31,101.12,0,126.81,52,126.81,119v181.56H703.11l-5-16.2c-15.08,15.08-36.31,23.46-66.48,23.46-57.54,0-108.93-34.63-108.93-98.32C522.67,856.16,567.36,817.61,636.63,817.61Zm19,124c22.34,0,39.1-10.62,39.1-30.17,0-20.11-17.32-31.28-39.66-31.28S616,892.47,616,911.46C616,931,633.84,941.63,655.63,941.63Z"/><path class="cls-1" d="M945,712.59h45.8V788H945v217.87H851.69V788H821V712.59h30.73v-8.38c0-77.1,54.74-103.35,116.19-103.35,11.17,0,17.88.56,28.49,1.12v78.21a92.13,92.13,0,0,0-15.08-1.12c-24,0-36.31,9.49-36.31,27.37Z"/><path class="cls-1" d="M1103.06,883.53c2.23,26.25,27.37,48.6,62,48.6,35.2,0,55.87-22.9,61.45-31.28L1288,948.33c-8.37,17.32-48.6,64.8-124.57,64.8-96.64,0-155.86-66.48-155.86-153.06,0-86,58.1-154.75,144.13-154.75,93.29,0,144.13,59.78,144.13,159.77,0,5.59,0,11.74-.56,18.44Zm2.79-59.22h95c-1.12-23.46-18.44-43.57-47.49-43.57C1122.61,780.74,1108.09,803.64,1105.85,824.31Z"/><path class="cls-2" d="M1703,951.68c-41.34,31.84-88.83,61.45-178.77,61.45-110.61,0-202.22-78.21-202.22-203.9,0-111.73,82.67-201.67,204.46-201.67,92.17,0,139.1,43,159.21,68.16l-60.33,62.56c-8.39-11.17-41.9-42.45-94.41-42.45-69.83,0-110.06,48.6-110.06,111.72,0,72.63,48,117.32,110.06,117.32,49.16,0,77.09-17.88,83.23-24V866.21h-67.59V786.33H1703Z"/><path class="cls-2" d="M1844.87,887.44c0,27.37,16.2,41.9,38.54,41.9,25.7,0,40.22-18.44,40.22-41.9V712.59h93.29v293.28h-91.05V975.7c-11.17,17.32-36.87,37.43-73.74,37.43-91.62,0-100.56-78.21-100.56-138V712.59h93.3Z"/><path class="cls-2" d="M2535.29,800.29a97.93,97.93,0,0,0-15.08-1.12c-45.25,0-60.34,33-60.34,77.1v129.6h-93.29V712.59h91.06v39.1c14-28.49,41.34-46.37,77.65-46.37Z"/><path class="cls-2" d="M2781.07,983c-8.38,9.49-36.31,30.16-79.33,30.16-84.35,0-143.57-63.68-143.57-153.62,0-91.06,53.63-154.19,138.54-154.19,44.69,0,72.07,22.35,78.21,29.61V602h93.3v403.89h-87.15Zm-66.48-195.53c-38,0-63.12,29.61-63.12,72.63,0,43.57,25.69,71.5,63.12,71.5,40.22,0,63.13-32.4,63.13-71.5C2777.72,813.7,2751.46,787.44,2714.59,787.44Z"/><path class="cls-2" d="M2311.84,824.91a15.7,15.7,0,0,0-.13-2.83c-1.64-8.88-9.57-16.17-18.43-16.37-1.33,0-1.8-.63-1.76-1.88s0-2.44,0-3.66c-.26-10.6.64-21.22-1.19-31.79a100.56,100.56,0,0,0-13.23-35.73,99.07,99.07,0,0,0-19.24-23.15,104.54,104.54,0,0,0-21.11-14.62A97.12,97.12,0,0,0,2203,684.45a254,254,0,0,0-26.18.06c-1.82-.51-3.52.17-5.25.49a9.15,9.15,0,0,1-1.15.39,100,100,0,0,0-32.26,12.21c-5.8,3.46-11.44,7.2-16.22,12.07a38.15,38.15,0,0,0-7.78,7.76c-.66.67-1.39,1.29-2,2a102.19,102.19,0,0,0-15.91,25.8c-4.9,11.65-7.89,23.71-8,36.39-.06,7.25,0,14.49,0,21.74,0,1.57-.38,2.29-2.14,2.35-9.61.35-18.19,9.34-18.19,18.95q0,82,0,164c0,8.4,3.87,14.24,10.91,18.31,7.65,2.61,15.57,1.53,23.37,1.55q87.38.1,174.75,0c8,0,16.12,1.1,24-1.54,7-4.07,10.95-9.86,10.94-18.28Q2311.76,906.78,2311.84,824.91ZM2205.78,911.5c.39,2.65,1.23,5.24,1.22,8,.9,5.34,1.76,10.68,2.71,16a18.36,18.36,0,0,0,.26,2.35,5.17,5.17,0,0,1,0,.68c1.12,3.81,1.21,7.79,2,11.65s1,7.7,1.94,11.48a23.52,23.52,0,0,1,.68,3.82c1,2.83,1,2.8-2.12,2.8-15.34,0-30.69,0-46,0-1.79,0-2.41-.5-1.89-2.21.62-2.08.41-4.31,1.27-6.34.55-1.49-.17-3.15.64-4.6.79-3.59,1.13-7.25,1.78-10.86,1-1.18.75-2.69,1-4,.5-2.82,1.25-5.63,1.08-8.54.77-5.13,1.91-10.19,2.49-15.34.19-1.67.61-3.31.94-5a1.76,1.76,0,0,0-.9-2.22c-1.65-2.43-3.94-4.37-5.23-7.07-.55-1.14-1.15-2.26-1.73-3.39l-.87-2h0a26.64,26.64,0,0,1,0-13.42c.68-1.63,1.39-3.24,2.18-4.82A39.14,39.14,0,0,1,2170,874l1.25-1.58a31.25,31.25,0,0,1,10.56-6.54,7.84,7.84,0,0,0,1.61,0c5.84-1.45,11.49-.69,17.07,1.27l2.8,1.3a26.31,26.31,0,0,1,8.56,8.9,21.55,21.55,0,0,0,2.09,4.8,12.91,12.91,0,0,1,.79,2.86,18.18,18.18,0,0,1,.72,5.08,20.09,20.09,0,0,1-.69,5.12,5.48,5.48,0,0,1-.44,2.4c-.35.65-.44,1.39-.81,2a5.35,5.35,0,0,0-1.23,2.43,21.33,21.33,0,0,1-5.62,7.06A2.25,2.25,0,0,0,2205.78,911.5Zm45.1-107.37c0,1.13-.59,1.58-1.66,1.56-.67,0-1.35,0-2,0H2132c-3,0-3,0-3-3,0-4.88-.06-9.76,0-14.64.16-10.53,1.83-20.76,6.8-30.18A61.06,61.06,0,0,1,2160,732.59a59.84,59.84,0,0,1,27.82-7.84,58.73,58.73,0,0,1,39.3,12.68c12.53,9.82,20.38,22.74,22.82,38.53C2251.35,785.27,2251,794.73,2250.88,804.13Z"/><rect class="cls-3" x="2777.16" y="939.02" width="231.2" height="121.38" rx="29.96"/><path class="cls-4" d="M2833.59,1013.86l14.1-46.78H2862l-21.66,62.2h-13.37l-21.57-62.2h14.22Z"/><path class="cls-4" d="M2880.63,1007.36v21.92h-12.82v-62.2h24.27a28,28,0,0,1,12.32,2.56,18.87,18.87,0,0,1,8.18,7.29,20.25,20.25,0,0,1,2.86,10.74q0,9.15-6.25,14.42t-17.33,5.27Zm0-10.38h11.45c3.39,0,6-.79,7.75-2.39a8.69,8.69,0,0,0,2.67-6.83,10.27,10.27,0,0,0-2.69-7.39,10.05,10.05,0,0,0-7.43-2.91h-11.75Z"/><path class="cls-4" d="M2974.82,1029.28H2962l-25-40.93v40.93h-12.82v-62.2h12.82l25,41v-41h12.77Z"/></svg>
