<svg width="16" height="17" viewBox="0 0 16 17" fill="none" xmlns="http://www.w3.org/2000/svg">
<g clip-path="url(#clip0_1203_1274)">
<g clip-path="url(#clip1_1203_1274)">
<path d="M7.33301 3.16669H2.66634C2.31272 3.16669 1.97358 3.30716 1.72353 3.55721C1.47348 3.80726 1.33301 4.1464 1.33301 4.50002V13.8334C1.33301 14.187 1.47348 14.5261 1.72353 14.7762C1.97358 15.0262 2.31272 15.1667 2.66634 15.1667H11.9997C12.3533 15.1667 12.6924 15.0262 12.9425 14.7762C13.1925 14.5261 13.333 14.187 13.333 13.8334V9.16669" stroke="currentColor" stroke-width="2" stroke-linecap="round" stroke-linejoin="round"/>
<path d="M12.333 2.16665C12.5982 1.90144 12.9579 1.75244 13.333 1.75244C13.7081 1.75244 14.0678 1.90144 14.333 2.16665C14.5982 2.43187 14.7472 2.79158 14.7472 3.16665C14.7472 3.54173 14.5982 3.90144 14.333 4.16665L7.99967 10.5L5.33301 11.1667L5.99967 8.49999L12.333 2.16665Z" stroke="currentColor" stroke-width="2" stroke-linecap="round" stroke-linejoin="round"/>
</g>
</g>
<defs>
<clipPath id="clip0_1203_1274">
<rect width="16" height="16" fill="white" transform="translate(0 0.5)"/>
</clipPath>
<clipPath id="clip1_1203_1274">
<rect width="16" height="16" fill="white" transform="translate(0 0.5)"/>
</clipPath>
</defs>
</svg>
