<svg width="18" height="18" viewBox="0 0 18 18" fill="none" xmlns="http://www.w3.org/2000/svg">
<g clip-path="url(#clip0_1182_807)">
<path d="M11.025 4.72499C10.8876 4.86518 10.8106 5.05367 10.8106 5.24998C10.8106 5.4463 10.8876 5.63479 11.025 5.77498L12.225 6.97499C12.3652 7.11241 12.5537 7.18938 12.75 7.18938C12.9463 7.18938 13.1348 7.11241 13.275 6.97499L16.1025 4.14748C16.4796 4.98088 16.5938 5.90941 16.4299 6.80934C16.2659 7.70928 15.8315 8.53787 15.1847 9.18469C14.5379 9.83152 13.7093 10.2659 12.8094 10.4298C11.9094 10.5938 10.9809 10.4796 10.1475 10.1025L4.96501 15.285C4.66665 15.5834 4.26197 15.751 3.84001 15.751C3.41806 15.751 3.01338 15.5834 2.71501 15.285C2.41665 14.9866 2.24902 14.5819 2.24902 14.16C2.24902 13.738 2.41665 13.3334 2.71501 13.035L7.89751 7.85249C7.52039 7.01909 7.4062 6.09056 7.57017 5.19063C7.73414 4.29069 8.16848 3.4621 8.8153 2.81528C9.46213 2.16845 10.2907 1.73411 11.1907 1.57014C12.0906 1.40617 13.0191 1.52036 13.8525 1.89748L11.0325 4.71748L11.025 4.72499Z" stroke="currentColor" stroke-width="2" stroke-linecap="round" stroke-linejoin="round"/>
</g>
<defs>
<clipPath id="clip0_1182_807">
<rect width="18" height="18" fill="white"/>
</clipPath>
</defs>
</svg>
